<svg xmlns="http://www.w3.org/2000/svg" viewBox="0 0 440 59.742">
  <defs>
    <style>
      .cls-1 {
        fill: #fec24b;
      }

      .cls-2, .cls-3 {
        fill: #04b250;
      }

      .cls-3 {
        fill-rule: evenodd;
      }
    </style>
  </defs>
  <g id="XMLID_17_" transform="translate(-31 -131)">
    <path id="Path_91" data-name="Path 91" class="cls-1" d="M2093.917,44.412l-4.007,7.65-3.157,5.586-6.8,2.671,1.579,8.014-1.579,4.007-7.285,3.764s6.435,19.55,27.807,20.643A31.249,31.249,0,0,0,2128.523,76.1s-5.343-2.55-5.707-3.036a59.133,59.133,0,0,1-2.55-9.957c0-1.457-.607-8.378-.607-8.378l-12.264-3.521-6.314-8.378Z" transform="translate(-2039.724 93.874)"/>
    <path id="XMLID_51_" class="cls-2" d="M59.742,30.492v-.574c0-1.243-.1-2.485-.191-3.632l-3.919-.574c-.1-.669-.287-1.338-.382-2.007L58.6,21.7a33.677,33.677,0,0,0-1.434-4.015l-3.919.669a12.246,12.246,0,0,0-1.051-1.912l2.676-2.963a28.41,28.41,0,0,0-2.581-3.346L48.75,11.853a12.31,12.31,0,0,0-1.625-1.529L48.75,6.691A27.7,27.7,0,0,0,45.309,4.3L42.441,7.073a22.97,22.97,0,0,0-2.2-1.051L40.72,2.1A32.267,32.267,0,0,0,36.706.86L34.889,4.4,32.882,4.11,32.117.191A8.932,8.932,0,0,0,29.919,0a15.487,15.487,0,0,0-2.1.1l-.765,3.919L25.044,4.3,23.228.86A24.649,24.649,0,0,0,19.213,2.1l.478,3.919A24.442,24.442,0,0,0,17.4,7.073L14.625,4.3a15.325,15.325,0,0,0-3.537,2.39l1.625,3.632a13.048,13.048,0,0,0-1.625,1.625L7.551,10.228a28.41,28.41,0,0,0-2.581,3.346l2.676,2.868L6.5,18.448l-3.919-.669A27.373,27.373,0,0,0,1.147,21.7l3.346,2.007a14.84,14.84,0,0,0-.382,2.007l-3.919.478C.1,27.434,0,28.676,0,29.919v.574l3.824.956a19.7,19.7,0,0,0,.287,2.485L.574,35.654c.287,1.338.669,2.772,1.051,4.015a29.843,29.843,0,0,0,56.4,0,19.955,19.955,0,0,0,1.051-4.11l-3.537-1.721c.1-.86.191-1.625.287-2.485ZM29.823,7.265A15.782,15.782,0,0,1,36.132,19.6a12.16,12.16,0,0,1-6.213,10.993A12.16,12.16,0,0,1,23.706,19.6,15.88,15.88,0,0,1,29.823,7.265ZM28.007,58.117a28.069,28.069,0,0,1-11.948-3.537v-.1s3.824-3.919,11.948-4.206Zm0-10.037a27.065,27.065,0,0,0-15.294,4.3A37.082,37.082,0,0,1,8.7,48.654v-.1s7.265-4.4,19.213-2.007v1.529Zm0-2.772c-3.728-.669-7.36-1.338-10.228-1.721A16.977,16.977,0,0,0,6.5,45.882a24.416,24.416,0,0,1-2.963-5.64c.191-.1,4.11-1.912,10.515-.1a139.525,139.525,0,0,0,13.86,3.441v1.721Zm3.154,12.809h-2.39V41.581a19.088,19.088,0,0,1-11.566-5.162A16.2,16.2,0,0,1,13.1,22.463s9.463.669,12.426,7.073,2.294,9.176,2.294,9.176.191,1.338,2.2,1.434c2.007-.1,2.2-1.434,2.2-1.434s-.669-2.772,2.294-9.176,12.426-7.073,12.426-7.073a15.859,15.859,0,0,1-4.11,13.956,19.088,19.088,0,0,1-11.566,5.162V58.117Zm.765,0V50.566A15.077,15.077,0,0,1,41.1,55.919,26.906,26.906,0,0,1,31.926,58.117ZM45.5,53.529h0a55.1,55.1,0,0,1-6.309-2.581,40.178,40.178,0,0,0-7.265-2.39V47.507c11.471,2.868,14.625,2.963,18.162,2.1v.1A29.514,29.514,0,0,1,45.5,53.529ZM55.728,41.485a23.147,23.147,0,0,1-3.346,5.544,40.885,40.885,0,0,1-9.75.382,94.738,94.738,0,0,1-10.706-1.434V44.161a52.632,52.632,0,0,0,9.559.382A68.729,68.729,0,0,0,55.728,41.485Z" transform="translate(31 131)"/>
    <path id="XMLID_18_" class="cls-3" d="M390.5,22.3h12.472V37.493L415.9,22.3h16.553L417.941,37.493l15.193,24.943H417.941l-8.39-16.553-6.349,6.8v9.75H390.73V22.3Zm-48.3,0h11.564l15.193,22.222V22.3h11.564V62.436H368.962L354,40.44v22H342.2ZM319.3,47.243l-4.535-14.512-4.308,14.512ZM321.8,55.86H307.738l-1.814,6.576h-12.7L308.191,22.3H321.8l14.966,40.136H323.837Zm-57.822-2.041h6.349a7.8,7.8,0,0,0,4.535-1.134,3.656,3.656,0,0,0,1.361-2.948,3.992,3.992,0,0,0-1.361-2.948,7.3,7.3,0,0,0-4.535-1.134h-6.349Zm0-15.646h5.442c2.041,0,3.175-.227,4.082-.907a3.917,3.917,0,0,0,1.134-2.948A3.755,3.755,0,0,0,273.5,31.6c-.68-.68-2.041-.907-3.855-.907H264.2v7.483ZM251.5,22.3h23.129c3.855,0,6.8.907,8.843,2.948a9.3,9.3,0,0,1,3.174,7.029,8.939,8.939,0,0,1-2.268,6.122,10.079,10.079,0,0,1-4.308,2.721c2.948.68,4.989,1.814,6.349,3.628a9.7,9.7,0,0,1,2.041,6.349,12.293,12.293,0,0,1-1.361,5.669,10.478,10.478,0,0,1-3.855,3.855,10.849,10.849,0,0,1-4.762,1.361,30.938,30.938,0,0,1-5.442.454H251.5Zm-33.56,9.07v22h2.948c2.494,0,4.535-.227,5.442-.907a5.363,5.363,0,0,0,2.494-2.948c.68-1.361.907-3.855.907-7.029,0-4.308-.68-7.256-2.041-8.617-1.361-1.587-3.628-2.268-6.8-2.268h-2.948ZM205.7,22.3h18.367c3.628,0,6.576.454,8.843,1.587a12.84,12.84,0,0,1,5.442,4.308,20.853,20.853,0,0,1,3.175,6.349,28.736,28.736,0,0,1,.907,7.71c0,4.308-.453,7.71-1.587,9.977a15.34,15.34,0,0,1-4.082,5.9,12.978,12.978,0,0,1-5.669,3.175,31.6,31.6,0,0,1-7.483,1.134H205.244V22.3Zm-48.3,0h11.564l15.193,22.222V22.3h11.564V62.436H184.156l-14.966-22v22H157.626V22.3ZM134.724,47.243l-4.535-14.512L125.88,47.243Zm2.494,8.617H123.159l-2.041,6.576H108.647L123.613,22.3h13.605l14.966,40.136H139.259ZM73.5,22.3H85.972V52.458h19.274v9.977H73.5Z" transform="translate(37.867 117.597)"/>
  </g>
</svg>
